<svg height="220" version="1.1" viewBox="0 0 360 360" width="220" xmlns="http://www.w3.org/2000/svg" xmlns:xlink="http://www.w3.org/1999/xlink"><defs><g class="white queen" fill="#fff" fill-rule="evenodd" id="white-queen" stroke="#000" stroke-linecap="round" stroke-linejoin="round" stroke-width="1.5"><path d="M8 12a2 2 0 1 1-4 0 2 2 0 1 1 4 0zM24.5 7.5a2 2 0 1 1-4 0 2 2 0 1 1 4 0zM41 12a2 2 0 1 1-4 0 2 2 0 1 1 4 0zM16 8.5a2 2 0 1 1-4 0 2 2 0 1 1 4 0zM33 9a2 2 0 1 1-4 0 2 2 0 1 1 4 0z" /><path d="M9 26c8.5-1.5 21-1.5 27 0l2-12-7 11V11l-5.5 13.5-3-15-3 15-5.5-14V25L7 14l2 12zM9 26c0 2 1.5 2 2.5 4 1 1.5 1 1 .5 3.5-1.5 1-1.5 2.5-1.5 2.5-1.5 1.5.5 2.5.5 2.5 6.5 1 16.5 1 23 0 0 0 1.5-1 0-2.5 0 0 .5-1.5-1-2.5-.5-2.5-.5-2 .5-3.5 1-2 2.5-2 2.5-4-8.5-1.5-18.5-1.5-27 0z" stroke-linecap="butt" /><path d="M11.5 30c3.5-1 18.5-1 22 0M12 33.5c6-1 15-1 21 0" fill="none" /></g><g class="white king" fill="none" fill-rule="evenodd" id="white-king" stroke="#000" stroke-linecap="round" stroke-linejoin="round" stroke-width="1.5"><path d="M22.5 11.63V6M20 8h5" stroke-linejoin="miter" /><path d="M22.5 25s4.5-7.5 3-10.5c0 0-1-2.5-3-2.5s-3 2.5-3 2.5c-1.5 3 3 10.5 3 10.5" fill="#fff" stroke-linecap="butt" stroke-linejoin="miter" /><path d="M11.5 37c5.5 3.5 15.5 3.5 21 0v-7s9-4.5 6-10.5c-4-6.5-13.5-3.5-16 4V27v-3.5c-3.5-7.5-13-10.5-16-4-3 6 5 10 5 10V37z" fill="#fff" /><path d="M11.5 30c5.5-3 15.5-3 21 0m-21 3.5c5.5-3 15.5-3 21 0m-21 3.5c5.5-3 15.5-3 21 0" /></g><g class="black king" fill="none" fill-rule="evenodd" id="black-king" stroke="#000" stroke-linecap="round" stroke-linejoin="round" stroke-width="1.5"><path d="M22.5 11.63V6" stroke-linejoin="miter" /><path d="M22.5 25s4.5-7.5 3-10.5c0 0-1-2.5-3-2.5s-3 2.5-3 2.5c-1.5 3 3 10.5 3 10.5" fill="#000" stroke-linecap="butt" stroke-linejoin="miter" /><path d="M11.5 37c5.5 3.5 15.5 3.5 21 0v-7s9-4.5 6-10.5c-4-6.5-13.5-3.5-16 4V27v-3.5c-3.5-7.5-13-10.5-16-4-3 6 5 10 5 10V37z" fill="#000" /><path d="M20 8h5" stroke-linejoin="miter" /><path d="M32 29.5s8.5-4 6.03-9.65C34.15 14 25 18 22.5 24.5l.01 2.1-.01-2.1C20 18 9.906 14 6.997 19.85c-2.497 5.65 4.853 9 4.853 9M11.5 30c5.5-3 15.5-3 21 0m-21 3.5c5.5-3 15.5-3 21 0m-21 3.5c5.5-3 15.5-3 21 0" stroke="#fff" /></g></defs><rect class="square dark a1" fill="#d18b47" height="45" stroke="none" width="45" x="0" y="315" /><use transform="translate(0, 315)" xlink:href="#white-king" /><rect class="square light b1" fill="#ffce9e" height="45" stroke="none" width="45" x="45" y="315" /><use transform="translate(45, 315)" xlink:href="#white-queen" /><rect class="square dark c1" fill="#d18b47" height="45" stroke="none" width="45" x="90" y="315" /><rect class="square light d1" fill="#ffce9e" height="45" stroke="none" width="45" x="135" y="315" /><rect class="square dark e1" fill="#d18b47" height="45" stroke="none" width="45" x="180" y="315" /><rect class="square light f1" fill="#ffce9e" height="45" stroke="none" width="45" x="225" y="315" /><rect class="square dark g1" fill="#d18b47" height="45" stroke="none" width="45" x="270" y="315" /><rect class="square light h1" fill="#ffce9e" height="45" stroke="none" width="45" x="315" y="315" /><rect class="square light a2" fill="#ffce9e" height="45" stroke="none" width="45" x="0" y="270" /><rect class="square dark b2" fill="#d18b47" height="45" stroke="none" width="45" x="45" y="270" /><rect class="square light c2" fill="#ffce9e" height="45" stroke="none" width="45" x="90" y="270" /><rect class="square dark d2" fill="#d18b47" height="45" stroke="none" width="45" x="135" y="270" /><rect class="square light e2" fill="#ffce9e" height="45" stroke="none" width="45" x="180" y="270" /><rect class="square dark f2" fill="#d18b47" height="45" stroke="none" width="45" x="225" y="270" /><rect class="square light g2" fill="#ffce9e" height="45" stroke="none" width="45" x="270" y="270" /><rect class="square dark h2" fill="#d18b47" height="45" stroke="none" width="45" x="315" y="270" /><rect class="square dark a3" fill="#d18b47" height="45" stroke="none" width="45" x="0" y="225" /><rect class="square light b3" fill="#ffce9e" height="45" stroke="none" width="45" x="45" y="225" /><rect class="square dark c3" fill="#d18b47" height="45" stroke="none" width="45" x="90" y="225" /><rect class="square light d3" fill="#ffce9e" height="45" stroke="none" width="45" x="135" y="225" /><rect class="square dark e3" fill="#d18b47" height="45" stroke="none" width="45" x="180" y="225" /><rect class="square light f3" fill="#ffce9e" height="45" stroke="none" width="45" x="225" y="225" /><rect class="square dark g3" fill="#d18b47" height="45" stroke="none" width="45" x="270" y="225" /><rect class="square light h3" fill="#ffce9e" height="45" stroke="none" width="45" x="315" y="225" /><rect class="square light a4" fill="#ffce9e" height="45" stroke="none" width="45" x="0" y="180" /><rect class="square dark b4" fill="#d18b47" height="45" stroke="none" width="45" x="45" y="180" /><rect class="square light c4" fill="#ffce9e" height="45" stroke="none" width="45" x="90" y="180" /><rect class="square dark d4" fill="#d18b47" height="45" stroke="none" width="45" x="135" y="180" /><rect class="square light e4" fill="#ffce9e" height="45" stroke="none" width="45" x="180" y="180" /><rect class="square dark f4" fill="#d18b47" height="45" stroke="none" width="45" x="225" y="180" /><rect class="square light g4" fill="#ffce9e" height="45" stroke="none" width="45" x="270" y="180" /><rect class="square dark h4" fill="#d18b47" height="45" stroke="none" width="45" x="315" y="180" /><rect class="square dark a5" fill="#d18b47" height="45" stroke="none" width="45" x="0" y="135" /><rect class="square light b5" fill="#ffce9e" height="45" stroke="none" width="45" x="45" y="135" /><rect class="square dark c5" fill="#d18b47" height="45" stroke="none" width="45" x="90" y="135" /><rect class="square light d5" fill="#ffce9e" height="45" stroke="none" width="45" x="135" y="135" /><rect class="square dark e5" fill="#d18b47" height="45" stroke="none" width="45" x="180" y="135" /><rect class="square light f5" fill="#ffce9e" height="45" stroke="none" width="45" x="225" y="135" /><rect class="square dark g5" fill="#d18b47" height="45" stroke="none" width="45" x="270" y="135" /><rect class="square light h5" fill="#ffce9e" height="45" stroke="none" width="45" x="315" y="135" /><rect class="square light a6" fill="#ffce9e" height="45" stroke="none" width="45" x="0" y="90" /><rect class="square dark b6" fill="#d18b47" height="45" stroke="none" width="45" x="45" y="90" /><rect class="square light c6" fill="#ffce9e" height="45" stroke="none" width="45" x="90" y="90" /><rect class="square dark d6" fill="#d18b47" height="45" stroke="none" width="45" x="135" y="90" /><use transform="translate(135, 90)" xlink:href="#black-king" /><rect class="square light e6" fill="#ffce9e" height="45" stroke="none" width="45" x="180" y="90" /><rect class="square dark f6" fill="#d18b47" height="45" stroke="none" width="45" x="225" y="90" /><rect class="square light g6" fill="#ffce9e" height="45" stroke="none" width="45" x="270" y="90" /><rect class="square dark h6" fill="#d18b47" height="45" stroke="none" width="45" x="315" y="90" /><rect class="square dark a7" fill="#d18b47" height="45" stroke="none" width="45" x="0" y="45" /><rect class="square light b7" fill="#ffce9e" height="45" stroke="none" width="45" x="45" y="45" /><rect class="square dark c7" fill="#d18b47" height="45" stroke="none" width="45" x="90" y="45" /><rect class="square light d7" fill="#ffce9e" height="45" stroke="none" width="45" x="135" y="45" /><rect class="square dark e7" fill="#d18b47" height="45" stroke="none" width="45" x="180" y="45" /><rect class="square light f7" fill="#ffce9e" height="45" stroke="none" width="45" x="225" y="45" /><rect class="square dark g7" fill="#d18b47" height="45" stroke="none" width="45" x="270" y="45" /><rect class="square light h7" fill="#ffce9e" height="45" stroke="none" width="45" x="315" y="45" /><rect class="square light a8" fill="#ffce9e" height="45" stroke="none" width="45" x="0" y="0" /><rect class="square dark b8" fill="#d18b47" height="45" stroke="none" width="45" x="45" y="0" /><rect class="square light c8" fill="#ffce9e" height="45" stroke="none" width="45" x="90" y="0" /><rect class="square dark d8" fill="#d18b47" height="45" stroke="none" width="45" x="135" y="0" /><rect class="square light e8" fill="#ffce9e" height="45" stroke="none" width="45" x="180" y="0" /><rect class="square dark f8" fill="#d18b47" height="45" stroke="none" width="45" x="225" y="0" /><rect class="square light g8" fill="#ffce9e" height="45" stroke="none" width="45" x="270" y="0" /><rect class="square dark h8" fill="#d18b47" height="45" stroke="none" width="45" x="315" y="0" /></svg>