<svg height="220" version="1.1" viewBox="0 0 360 360" width="220" xmlns="http://www.w3.org/2000/svg" xmlns:xlink="http://www.w3.org/1999/xlink"><defs /><rect class="square dark a1" fill="#d18b47" height="45" stroke="none" width="45" x="0" y="315" /><rect class="square light b1" fill="#ffce9e" height="45" stroke="none" width="45" x="45" y="315" /><rect class="square dark c1" fill="#d18b47" height="45" stroke="none" width="45" x="90" y="315" /><rect class="square light d1" fill="#ffce9e" height="45" stroke="none" width="45" x="135" y="315" /><rect class="square dark e1" fill="#d18b47" height="45" stroke="none" width="45" x="180" y="315" /><rect class="square light f1" fill="#ffce9e" height="45" stroke="none" width="45" x="225" y="315" /><rect class="square dark g1" fill="#d18b47" height="45" stroke="none" width="45" x="270" y="315" /><rect class="square light h1" fill="#ffce9e" height="45" stroke="none" width="45" x="315" y="315" /><rect class="square light a2" fill="#ffce9e" height="45" stroke="none" width="45" x="0" y="270" /><rect class="square dark b2" fill="#d18b47" height="45" stroke="none" width="45" x="45" y="270" /><rect class="square light c2" fill="#ffce9e" height="45" stroke="none" width="45" x="90" y="270" /><rect class="square dark d2" fill="#d18b47" height="45" stroke="none" width="45" x="135" y="270" /><rect class="square light e2" fill="#ffce9e" height="45" stroke="none" width="45" x="180" y="270" /><rect class="square dark f2" fill="#d18b47" height="45" stroke="none" width="45" x="225" y="270" /><rect class="square light g2" fill="#ffce9e" height="45" stroke="none" width="45" x="270" y="270" /><rect class="square dark h2" fill="#d18b47" height="45" stroke="none" width="45" x="315" y="270" /><rect class="square dark a3" fill="#d18b47" height="45" stroke="none" width="45" x="0" y="225" /><rect class="square light b3" fill="#ffce9e" height="45" stroke="none" width="45" x="45" y="225" /><rect class="square dark c3" fill="#d18b47" height="45" stroke="none" width="45" x="90" y="225" /><rect class="square light d3" fill="#ffce9e" height="45" stroke="none" width="45" x="135" y="225" /><rect class="square dark e3" fill="#d18b47" height="45" stroke="none" width="45" x="180" y="225" /><rect class="square light f3" fill="#ffce9e" height="45" stroke="none" width="45" x="225" y="225" /><rect class="square dark g3" fill="#d18b47" height="45" stroke="none" width="45" x="270" y="225" /><rect class="square light h3" fill="#ffce9e" height="45" stroke="none" width="45" x="315" y="225" /><rect class="square light a4" fill="#ffce9e" height="45" stroke="none" width="45" x="0" y="180" /><rect class="square dark b4" fill="#d18b47" height="45" stroke="none" width="45" x="45" y="180" /><rect class="square light c4" fill="#ffce9e" height="45" stroke="none" width="45" x="90" y="180" /><rect class="square dark d4" fill="#d18b47" height="45" stroke="none" width="45" x="135" y="180" /><rect class="square light e4" fill="#ffce9e" height="45" stroke="none" width="45" x="180" y="180" /><rect class="square dark f4" fill="#d18b47" height="45" stroke="none" width="45" x="225" y="180" /><rect class="square light g4" fill="#ffce9e" height="45" stroke="none" width="45" x="270" y="180" /><rect class="square dark h4" fill="#d18b47" height="45" stroke="none" width="45" x="315" y="180" /><rect class="square dark a5" fill="#d18b47" height="45" stroke="none" width="45" x="0" y="135" /><rect class="square light b5" fill="#ffce9e" height="45" stroke="none" width="45" x="45" y="135" /><rect class="square dark c5" fill="#d18b47" height="45" stroke="none" width="45" x="90" y="135" /><rect class="square light d5" fill="#ffce9e" height="45" stroke="none" width="45" x="135" y="135" /><rect class="square dark e5" fill="#d18b47" height="45" stroke="none" width="45" x="180" y="135" /><rect class="square light f5" fill="#ffce9e" height="45" stroke="none" width="45" x="225" y="135" /><rect class="square dark g5" fill="#d18b47" height="45" stroke="none" width="45" x="270" y="135" /><rect class="square light h5" fill="#ffce9e" height="45" stroke="none" width="45" x="315" y="135" /><rect class="square light a6" fill="#ffce9e" height="45" stroke="none" width="45" x="0" y="90" /><rect class="square dark b6" fill="#d18b47" height="45" stroke="none" width="45" x="45" y="90" /><rect class="square light c6" fill="#ffce9e" height="45" stroke="none" width="45" x="90" y="90" /><rect class="square dark d6" fill="#d18b47" height="45" stroke="none" width="45" x="135" y="90" /><rect class="square light e6" fill="#ffce9e" height="45" stroke="none" width="45" x="180" y="90" /><rect class="square dark f6" fill="#d18b47" height="45" stroke="none" width="45" x="225" y="90" /><rect class="square light g6" fill="#ffce9e" height="45" stroke="none" width="45" x="270" y="90" /><rect class="square dark h6" fill="#d18b47" height="45" stroke="none" width="45" x="315" y="90" /><rect class="square dark a7" fill="#d18b47" height="45" stroke="none" width="45" x="0" y="45" /><rect class="square light b7" fill="#ffce9e" height="45" stroke="none" width="45" x="45" y="45" /><rect class="square dark c7" fill="#d18b47" height="45" stroke="none" width="45" x="90" y="45" /><rect class="square light d7" fill="#ffce9e" height="45" stroke="none" width="45" x="135" y="45" /><rect class="square dark e7" fill="#d18b47" height="45" stroke="none" width="45" x="180" y="45" /><rect class="square light f7" fill="#ffce9e" height="45" stroke="none" width="45" x="225" y="45" /><rect class="square dark g7" fill="#d18b47" height="45" stroke="none" width="45" x="270" y="45" /><rect class="square light h7" fill="#ffce9e" height="45" stroke="none" width="45" x="315" y="45" /><rect class="square light a8" fill="#ffce9e" height="45" stroke="none" width="45" x="0" y="0" /><rect class="square dark b8" fill="#d18b47" height="45" stroke="none" width="45" x="45" y="0" /><rect class="square light c8" fill="#ffce9e" height="45" stroke="none" width="45" x="90" y="0" /><rect class="square dark d8" fill="#d18b47" height="45" stroke="none" width="45" x="135" y="0" /><rect class="square light e8" fill="#ffce9e" height="45" stroke="none" width="45" x="180" y="0" /><rect class="square dark f8" fill="#d18b47" height="45" stroke="none" width="45" x="225" y="0" /><rect class="square light g8" fill="#ffce9e" height="45" stroke="none" width="45" x="270" y="0" /><rect class="square dark h8" fill="#d18b47" height="45" stroke="none" width="45" x="315" y="0" /></svg>